<!-- Generated by IcoMoon.io -->
<svg version="1.1" xmlns="http://www.w3.org/2000/svg" width="1024" height="1024" viewBox="0 0 1024 1024">
<title></title>
<g id="icomoon-ignore">
</g>
<path fill="#000" d="M809.271 634.33c-20.965-21.828-46.251-33.498-73.049-33.498-26.583 0-52.084 11.455-73.912 33.283l-68.297 68.079c-5.618-3.028-11.237-5.837-16.64-8.646-7.779-3.891-15.128-7.564-21.395-11.455-63.973-40.632-122.112-93.58-177.869-162.092-27.017-34.147-45.171-62.891-58.354-92.068 17.722-16.21 34.147-33.065 50.142-49.275 6.052-6.052 12.1-12.319 18.152-18.371 45.387-45.386 45.387-104.171 0-149.557l-59-59.001c-6.7-6.7-13.616-13.616-20.099-20.532-12.967-13.4-26.583-27.232-40.631-40.199-20.964-20.748-46.034-31.77-72.401-31.77s-51.869 11.022-73.482 31.77c-0.216 0.216-0.216 0.216-0.432 0.432l-73.482 74.13c-27.664 27.664-43.441 61.379-46.899 100.497-5.187 63.108 13.4 121.895 27.664 160.363 35.012 94.447 87.314 181.975 165.333 275.773 94.662 113.029 208.556 202.288 338.662 265.182 49.708 23.555 116.060 51.436 190.188 56.19 4.54 0.215 9.295 0.433 13.616 0.433 49.927 0 91.853-17.94 124.703-53.6 0.218-0.433 0.649-0.649 0.867-1.082 11.237-13.616 24.204-25.935 37.82-39.117 9.295-8.861 18.804-18.156 28.095-27.88 21.398-22.262 32.635-48.196 32.635-74.779 0-26.798-11.455-52.518-33.283-74.127l-118.651-119.084zM886.644 861.908c-0.218 0-0.218 0.215 0 0-8.431 9.076-17.073 17.289-26.368 26.368-14.049 13.397-28.31 27.447-41.711 43.223-21.828 23.34-47.548 34.362-81.261 34.362-3.243 0-6.7 0-9.943-0.215-64.188-4.106-123.839-29.177-168.574-50.572-122.327-59.218-229.739-143.288-318.997-249.839-73.698-88.825-122.974-170.95-155.608-259.13-20.099-53.815-27.448-95.742-24.206-135.292 2.161-25.286 11.887-46.25 29.825-64.188l73.698-73.698c10.59-9.942 21.828-15.345 32.851-15.345 13.615 0 24.638 8.212 31.554 15.129 0.216 0.216 0.432 0.432 0.649 0.648 13.183 12.319 25.718 25.070 38.902 38.686 6.7 6.916 13.615 13.832 20.532 20.964l59.001 59.001c22.91 22.909 22.91 44.089 0 66.998-6.268 6.268-12.319 12.535-18.586 18.586-18.154 18.587-35.444 35.875-54.247 52.734-0.432 0.433-0.865 0.649-1.081 1.082-18.587 18.586-15.129 36.741-11.238 49.060 0.216 0.649 0.432 1.294 0.649 1.942 15.345 37.175 36.957 72.185 69.807 113.9l0.216 0.215c59.649 73.482 122.543 130.755 191.915 174.626 8.861 5.618 17.94 10.158 26.583 14.479 7.782 3.891 15.131 7.564 21.398 11.455 0.864 0.433 1.727 1.082 2.594 1.512 7.345 3.676 14.261 5.403 21.395 5.403 17.937 0 29.177-11.237 32.85-14.913l73.916-73.912c7.345-7.349 19.016-16.21 32.631-16.21 13.401 0 24.422 8.428 31.123 15.776 0.215 0.218 0.215 0.218 0.433 0.433l119.081 119.084c22.262 22.043 22.262 44.735 0.218 67.645z"></path>
<path fill="#000" d="M553.383 243.583c56.624 9.509 108.059 36.309 149.125 77.372 41.062 41.063 67.645 92.499 77.37 149.126 2.376 14.261 14.698 24.204 28.744 24.204 1.731 0 3.243-0.215 4.97-0.433 15.995-2.591 26.583-17.722 23.992-33.713-11.674-68.512-44.090-130.97-93.583-180.462-49.49-49.492-111.951-81.91-180.46-93.581-15.995-2.593-30.908 7.996-33.717 23.773s7.564 31.122 23.559 33.715z"></path>
<path fill="#000" d="M1022.819 451.707c-19.234-112.815-72.4-215.473-154.095-297.167s-184.351-134.86-297.168-154.095c-15.776-2.81-30.689 7.997-33.498 23.773-2.594 15.993 7.997 30.905 23.989 33.715 100.714 17.073 192.567 64.837 265.615 137.67 73.049 73.049 120.596 164.903 137.67 265.613 2.376 14.264 14.694 24.207 28.744 24.207 1.727 0 3.243-0.218 4.97-0.433 15.776-2.376 26.583-17.507 23.774-33.283z"></path>
</svg>
